<?xml version="1.0" standalone="no"?>
<!DOCTYPE svg PUBLIC "-//W3C//DTD SVG 20010904//EN"
 "http://www.w3.org/TR/2001/REC-SVG-20010904/DTD/svg10.dtd">
<svg version="1.0" xmlns="http://www.w3.org/2000/svg"
 width="512.000000pt" height="512.000000pt" viewBox="0 0 512.000000 512.000000"
 preserveAspectRatio="xMidYMid meet">

<g transform="translate(0.000000,512.000000) scale(0.100000,-0.100000)"
fill="#000000" stroke="none">
<path d="M3854 5102 c-28 -10 -64 -29 -81 -42 -24 -20 -142 -160 -200 -237
-12 -15 -23 -13 -130 20 -264 83 -473 116 -763 124 -400 10 -735 -46 -1084
-182 -220 -85 -256 -108 -256 -161 0 -35 37 -74 69 -74 9 0 62 20 119 45 375
165 731 234 1152 222 289 -8 500 -45 765 -133 83 -28 145 -44 159 -40 14 3 67
61 135 146 114 144 155 180 204 180 40 0 93 -25 111 -52 33 -52 416 -1051 416
-1086 0 -49 -29 -95 -75 -117 -38 -17 -39 -17 -584 64 -300 45 -560 87 -578
92 -40 13 -80 59 -88 103 -10 48 11 87 114 215 99 123 112 151 90 190 -17 31
-104 60 -283 96 -167 33 -289 45 -468 45 -618 0 -1189 -234 -1642 -674 -68
-65 -96 -86 -116 -86 -35 0 -178 112 -186 146 -3 13 -3 35 0 48 13 52 299 302
519 453 42 29 47 36 47 71 0 47 -24 72 -69 72 -59 0 -298 -178 -493 -368 -145
-142 -163 -173 -156 -271 6 -79 35 -122 145 -211 91 -73 129 -90 198 -90 66 1
119 33 238 147 327 314 706 506 1152 584 153 26 430 36 584 20 119 -12 311
-48 324 -60 4 -4 -22 -44 -57 -89 -74 -94 -90 -133 -90 -217 0 -71 29 -143 77
-193 68 -71 79 -74 693 -167 414 -63 581 -85 614 -80 100 15 195 93 226 187
33 101 26 125 -190 678 -109 278 -209 526 -222 551 -59 118 -212 177 -340 131z"/>
<path d="M2449 3922 c-71 -37 -111 -100 -117 -182 l-4 -58 -52 -17 c-142 -47
-302 -170 -370 -287 -64 -110 -93 -247 -76 -367 28 -206 168 -359 423 -463
l77 -32 0 -288 c0 -273 -1 -288 -18 -288 -32 0 -103 25 -187 65 -108 53 -170
57 -245 18 -78 -41 -115 -103 -115 -192 0 -123 59 -184 255 -264 87 -35 178
-61 263 -73 46 -6 47 -7 47 -43 0 -68 20 -114 69 -162 146 -141 371 -43 371
162 l0 57 47 11 c87 22 192 77 203 106 15 39 12 53 -15 80 -31 32 -52 31 -133
-4 -37 -16 -98 -37 -137 -46 -102 -25 -115 -42 -115 -155 0 -84 -1 -90 -26
-109 -35 -27 -59 -26 -89 4 -23 22 -25 32 -25 108 0 113 -10 123 -145 137
-104 12 -237 51 -327 96 -98 49 -119 85 -77 138 27 34 55 33 129 -4 96 -48
205 -81 294 -87 81 -6 83 -5 104 22 22 27 22 32 22 405 0 432 4 410 -91 444
-96 34 -253 119 -301 164 -192 179 -129 508 126 657 27 16 92 41 144 56 53 16
100 35 108 46 9 12 13 46 14 99 0 71 3 83 23 102 29 27 71 28 97 2 16 -16 20
-33 20 -94 0 -88 20 -122 78 -131 131 -22 291 -84 337 -129 34 -34 33 -78 -1
-105 -15 -12 -32 -21 -40 -21 -7 0 -48 18 -91 40 -148 76 -244 84 -272 24 -16
-35 -15 -587 0 -617 16 -31 19 -32 163 -78 196 -64 315 -153 380 -285 70 -143
57 -302 -38 -459 -42 -69 -43 -83 -15 -119 15 -19 30 -26 55 -26 45 0 73 30
125 135 88 179 91 371 7 542 -24 49 -57 92 -118 153 -96 96 -185 149 -332 196
l-88 28 0 198 c0 132 4 198 11 198 5 0 40 -15 77 -34 87 -45 127 -52 194 -32
166 48 212 261 82 375 -51 45 -201 116 -291 137 l-73 18 0 45 c0 159 -175 259
-321 183z"/>
<path d="M1210 3559 c-58 -23 -127 -118 -145 -196 -10 -49 18 -132 57 -170 39
-36 216 -127 281 -144 124 -31 250 75 250 211 0 63 -17 102 -65 146 -35 34
-162 120 -215 148 -35 18 -123 21 -163 5z m195 -204 c51 -35 95 -71 99 -80 8
-22 -19 -72 -43 -80 -28 -9 -237 98 -246 125 -5 15 2 34 19 61 37 55 60 52
171 -26z"/>
<path d="M3726 3535 c-70 -42 -151 -100 -189 -134 -43 -39 -60 -80 -60 -142 0
-134 127 -240 250 -209 75 18 256 115 291 154 58 66 64 144 17 236 -46 90
-106 130 -198 130 -43 0 -64 -7 -111 -35z m156 -132 c61 -70 49 -92 -83 -159
-120 -60 -139 -61 -164 -13 -21 40 -13 51 91 125 93 66 130 77 156 47z"/>
<path d="M2314 3366 c-116 -54 -194 -167 -194 -279 0 -71 26 -134 72 -172 46
-39 183 -105 217 -105 20 0 36 9 50 26 20 25 21 39 21 268 0 230 -1 243 -20
264 -28 29 -81 29 -146 -2z m14 -317 l-3 -51 -27 25 c-21 20 -28 35 -28 64 0
26 9 52 28 78 l27 40 3 -52 c2 -29 2 -76 0 -104z"/>
<path d="M980 2788 c-25 -14 -58 -44 -75 -67 -25 -36 -30 -54 -33 -117 -4 -65
-1 -81 22 -129 28 -56 66 -88 128 -106 42 -12 288 7 331 25 39 17 92 71 106
109 32 85 -1 209 -69 255 -47 32 -88 40 -235 47 -125 6 -132 6 -175 -17z m266
-138 c25 0 49 -6 58 -16 20 -19 21 -78 2 -93 -8 -7 -67 -16 -132 -21 -139 -12
-154 -5 -154 66 0 66 18 78 109 70 40 -3 93 -6 117 -6z"/>
<path d="M3888 2801 c-109 -10 -169 -42 -205 -110 -27 -51 -31 -142 -9 -194
17 -39 71 -92 109 -106 42 -16 287 -32 324 -22 52 15 92 43 121 85 23 33 27
51 30 120 3 70 0 87 -21 126 -13 25 -43 58 -66 75 -38 26 -52 30 -119 31 -42
1 -116 -1 -164 -5z m206 -157 c23 -22 21 -96 -2 -117 -17 -15 -32 -16 -136 -7
-65 5 -124 14 -132 21 -20 16 -18 73 4 92 17 15 42 18 204 25 31 1 52 -3 62
-14z"/>
<path d="M2674 2540 c-53 -21 -54 -30 -54 -373 l0 -319 30 -30 c37 -37 60 -34
176 22 223 108 315 347 201 517 -43 63 -116 117 -207 152 -95 36 -120 41 -146
31z m170 -210 c113 -72 109 -204 -10 -309 -26 -22 -51 -41 -55 -41 -5 0 -9 86
-9 190 0 150 3 190 13 190 7 0 35 -14 61 -30z"/>
<path d="M1295 2077 c-146 -70 -167 -83 -193 -122 -47 -68 -51 -139 -12 -216
62 -121 171 -168 276 -120 68 31 221 138 247 173 82 109 35 268 -95 322 -64
27 -104 20 -223 -37z m198 -128 c12 -17 17 -34 13 -47 -10 -31 -197 -155 -227
-150 -34 4 -74 79 -59 108 14 26 197 120 229 117 13 -1 33 -14 44 -28z"/>
<path d="M3610 2114 c-95 -41 -154 -154 -129 -248 17 -62 41 -89 144 -161 114
-80 167 -105 220 -105 154 0 272 203 195 337 -29 53 -66 78 -206 142 -120 55
-163 62 -224 35z m188 -183 c54 -27 104 -56 111 -65 24 -29 -23 -116 -63 -116
-23 0 -190 108 -214 138 -22 28 12 92 50 92 10 0 62 -22 116 -49z"/>
<path d="M693 1551 c-129 -44 -200 -151 -191 -284 4 -51 39 -152 202 -567 109
-278 209 -526 222 -551 57 -114 198 -173 325 -136 85 25 117 55 287 272 l22
28 138 -42 c155 -47 266 -72 432 -98 164 -26 616 -26 780 0 611 96 1122 347
1547 760 145 142 167 178 161 271 -5 84 -33 125 -145 216 -91 73 -129 90 -198
90 -67 -1 -122 -34 -239 -148 -321 -311 -704 -504 -1151 -583 -153 -26 -430
-36 -584 -20 -119 12 -311 48 -324 60 -4 4 22 44 57 89 74 94 90 133 90 217 0
108 -72 219 -169 259 -34 14 -1133 186 -1185 186 -14 -1 -48 -9 -77 -19z m620
-211 c292 -44 549 -84 569 -90 72 -20 114 -104 85 -171 -8 -19 -56 -85 -106
-148 -99 -123 -112 -151 -90 -189 37 -66 441 -142 749 -142 621 0 1187 232
1644 674 67 65 96 86 116 86 35 0 178 -112 186 -146 12 -45 -6 -72 -120 -181
-282 -272 -615 -473 -987 -597 -311 -104 -574 -142 -914 -133 -294 8 -503 44
-770 133 -83 28 -145 44 -159 40 -14 -3 -67 -61 -135 -146 -114 -144 -155
-180 -204 -180 -38 0 -95 28 -112 54 -8 12 -104 252 -214 534 -132 336 -201
526 -201 550 0 21 8 51 19 68 17 29 71 63 99 64 7 0 252 -36 545 -80z"/>
</g>
</svg>
