<?xml version="1.0" standalone="no"?>
<!DOCTYPE svg PUBLIC "-//W3C//DTD SVG 20010904//EN"
 "http://www.w3.org/TR/2001/REC-SVG-20010904/DTD/svg10.dtd">
<svg version="1.0" xmlns="http://www.w3.org/2000/svg"
 width="200.000000pt" height="50.000000pt" viewBox="0 0 200.000000 50.000000"
 preserveAspectRatio="xMidYMid meet">

<g transform="translate(0.000000,50.000000) scale(0.100000,-0.100000)"
fill="#000000" stroke="none">
<path d="M146 338 c-34 -48 -9 -112 40 -106 22 2 30 10 36 36 11 42 23 34 33
-20 4 -24 9 -37 12 -30 3 6 21 12 43 12 41 0 55 11 65 50 9 38 -27 80 -69 80
-17 0 -37 -5 -44 -12 -9 -9 -15 -9 -24 0 -21 21 -75 15 -92 -10z"/>
<path d="M1152 320 c-45 -18 -53 -108 -11 -131 26 -14 71 -8 77 10 3 10 0 12
-13 7 -43 -16 -73 22 -54 71 7 20 15 24 34 20 22 -4 44 8 34 17 -12 11 -47 13
-67 6z"/>
<path d="M1752 319 c2 -6 8 -10 13 -10 5 0 11 4 13 10 2 6 -4 11 -13 11 -9 0
-15 -5 -13 -11z"/>
<path d="M470 250 c0 -56 3 -70 15 -70 10 0 15 10 15 30 0 27 3 30 30 30 27 0
30 -3 30 -30 0 -20 5 -30 15 -30 12 0 15 14 15 70 0 56 -3 70 -15 70 -9 0 -15
-9 -15 -25 0 -21 -5 -25 -30 -25 -25 0 -30 4 -30 25 0 16 -6 25 -15 25 -12 0
-15 -14 -15 -70z"/>
<path d="M1620 310 c0 -5 9 -10 20 -10 18 0 20 -7 20 -60 0 -47 3 -60 15 -60
12 0 15 13 15 60 0 53 2 60 20 60 11 0 20 5 20 10 0 6 -25 10 -55 10 -30 0
-55 -4 -55 -10z"/>
<path d="M632 278 c-16 -16 -16 -70 0 -86 15 -15 61 -15 76 0 7 7 12 26 12 43
0 38 -16 55 -50 55 -14 0 -31 -5 -38 -12z m53 -44 c0 -19 -5 -29 -15 -29 -16
0 -25 28 -16 51 10 25 31 10 31 -22z"/>
<path d="M750 233 c0 -40 4 -53 14 -53 10 0 16 14 18 43 2 29 8 42 18 42 10 0
16 -13 18 -42 4 -58 32 -61 32 -4 0 42 16 63 31 40 5 -8 9 -29 9 -46 0 -23 5
-33 15 -33 11 0 15 11 15 36 0 65 -10 73 -95 71 l-75 -1 0 -53z"/>
<path d="M950 271 c-14 -28 -12 -57 6 -75 19 -19 74 -21 74 -3 0 7 -11 13 -27
12 -14 0 -28 6 -30 13 -3 8 7 12 31 12 28 0 36 4 36 18 0 42 -70 60 -90 23z
m60 -11 c0 -5 -9 -10 -21 -10 -11 0 -17 5 -14 10 3 6 13 10 21 10 8 0 14 -4
14 -10z"/>
<path d="M1253 278 c2 -7 10 -12 17 -10 7 2 20 0 29 -3 12 -5 7 -10 -19 -18
-28 -10 -35 -17 -35 -37 0 -23 4 -25 48 -27 l47 -2 0 43 c0 23 -5 47 -12 54
-16 16 -81 16 -75 0z m57 -58 c0 -12 -28 -25 -36 -17 -9 9 6 27 22 27 8 0 14
-5 14 -10z"/>
<path d="M1370 233 c0 -40 4 -53 15 -53 10 0 15 11 15 35 0 24 6 37 20 45 30
16 24 28 -15 27 l-35 -1 0 -53z"/>
<path d="M1463 264 c-15 -24 -15 -29 -2 -53 11 -20 22 -26 49 -26 18 0 35 5
37 11 2 7 -8 9 -27 6 -23 -3 -30 0 -30 12 0 11 9 16 30 16 22 0 30 5 30 18 0
46 -60 57 -87 16z m57 -4 c0 -5 -7 -10 -15 -10 -8 0 -15 5 -15 10 0 6 7 10 15
10 8 0 15 -4 15 -10z"/>
<path d="M1750 235 c0 -42 3 -55 15 -55 12 0 15 13 15 55 0 42 -3 55 -15 55
-12 0 -15 -13 -15 -55z"/>
<path d="M227 228 c-3 -10 -16 -18 -29 -18 -20 0 -18 -4 17 -41 l40 -40 33 38
c29 33 31 39 16 42 -11 2 -25 -6 -33 -19 -15 -22 -15 -22 -26 16 -8 30 -12 35
-18 22z"/>
</g>
</svg>
