<?xml version="1.0" standalone="no"?>
<!DOCTYPE svg PUBLIC "-//W3C//DTD SVG 20010904//EN"
 "http://www.w3.org/TR/2001/REC-SVG-20010904/DTD/svg10.dtd">
<svg version="1.0" xmlns="http://www.w3.org/2000/svg"
 width="1080.000000pt" height="1080.000000pt" viewBox="0 0 1080.000000 1080.000000"
 preserveAspectRatio="xMidYMid meet">

<g transform="translate(0.000000,1080.000000) scale(0.100000,-0.100000)"
fill="#000000" stroke="none">
<path d="M2 8258 c0 -1399 3 -2527 4 -2508 2 19 9 91 14 160 42 480 172 1025
359 1491 633 1585 1988 2787 3633 3223 321 85 705 148 1033 169 28 2 -1096 4
-2497 5 l-2548 2 2 -2542z"/>
<path d="M5755 10793 c441 -28 910 -119 1330 -258 1234 -406 2272 -1234 2949
-2353 310 -512 542 -1109 661 -1699 40 -198 81 -488 94 -663 5 -68 9 928 10
2433 l1 2547 -2547 -2 c-1402 -1 -2525 -3 -2498 -5z"/>
<path d="M4493 5771 l-301 -208 -603 -6 c-331 -4 -1274 -7 -2096 -7 l-1493 0
0 -150 0 -150 2090 0 2090 0 315 217 315 217 0 148 c0 81 -3 148 -7 148 -5 -1
-144 -94 -310 -209z"/>
<path d="M6590 5552 c0 -7 -4 -11 -9 -9 -5 1 -149 -94 -320 -211 l-311 -213 0
-150 c0 -82 2 -149 4 -149 2 0 145 97 317 215 l313 215 2108 0 2108 0 0 150 0
150 -1512 0 c-832 0 -1780 3 -2105 7 -448 5 -593 3 -593 -5z"/>
<path d="M10786 4975 c-20 -351 -118 -850 -243 -1240 -327 -1016 -992 -1962
-1833 -2606 -578 -443 -1177 -744 -1856 -934 -357 -100 -676 -154 -1109 -188
-22 -2 1106 -4 2508 -5 l2547 -2 0 2545 c0 1400 -2 2545 -3 2545 -2 0 -7 -52
-11 -115z"/>
<path d="M2 2543 l-2 -2543 2548 2 c1401 1 2529 3 2507 5 -433 34 -751 88
-1111 188 -899 251 -1716 731 -2374 1394 -671 677 -1141 1490 -1389 2403 -74
273 -137 627 -161 898 -5 69 -12 141 -14 160 -1 19 -4 -1109 -4 -2507z"/>
</g>
</svg>
